<?xml version="1.0" encoding="utf-8"?>
<svg viewBox="489.4999694824219 710.5000610351562 582.4000244140625 199.0999755859375" width="582.4000244140625" height="199.0999755859375" xmlns="http://www.w3.org/2000/svg"><path class="st1" d="M1070.2,868.4c-12.7-20.1-33.1-37.7-58-37.6c-24.3,0.1-51,21.9-74.8,10.6c0.3-0.1,0.6-0.2,0.9-0.3&#10;&#9;&#9;c3.8-1.7,6.8-4.4,9.3-7.6c5.7-7.5,5.9-17.5,4.3-26.4c-1.6-9-5.2-18.4-10.8-25.7c-12.7-16.6-34-14.7-51.4-7.6&#10;&#9;&#9;c-1.1,0.5-2.2,1-3.4,1.5c-1.4-17.1-14.6-31.1-30.2-37c-16.5-6.2-39.5-3.9-53.6,7.2c-0.7,0.6-1.4,1.2-2.1,1.8&#10;&#9;&#9;c-1.7-7.5-7.6-13.6-14.2-17.2c-13.3-7.3-28.7-3.1-39.5,6.4c-7.3-11.3-17.9-19.5-31-22.8c-13-3.2-26.9-1.2-39.1,3.7&#10;&#9;&#9;c-27.9,11.3-46.6,38-45.9,68.3c0.3,11.1,3.7,21.8,10,30.5c-1.3,6.6-7.4,9.8-13.5,11.2c-7.7,1.7-16.2-0.9-23.9-1.7&#10;&#9;&#9;c-14.3-1.6-27.3,4.3-37.8,13.7c-5.2,4.7-9.5,10.3-13.4,16c-4.3,6.3-8.5,12.8-15.1,17.1c-12.7,8.2-29,5.1-41.9-0.7&#10;&#9;&#9;c-2.5-1.2-5.6,2.1-3.2,4.1c14.5,12.3,33.5,18.2,52.5,16.5c20.8-1.9,38.9-13.7,57.5-22.2c9.7-4.4,20.1-7.7,30.8-8.3&#10;&#9;&#9;c11-0.7,20.5,2.6,29.4,8.9c8.2,5.8,15.8,11.6,25.4,15c8.8,3.1,18.1,3.9,27.3,2.6c5.3-0.8,10.5-3.1,15-5.9c0.2-0.1,0.4-0.3,0.6-0.5&#10;&#9;&#9;c7-0.2,13.8-2.2,19.4-6.5c2.6-2,4.9-4.5,6.9-7.2c0.7,5.6,5.2,11,8.4,15.2c5.6,7.4,13.4,11.7,21.7,15.4c7.9,3.6,16.6,5.6,25.1,3.1&#10;&#9;&#9;c2.6-0.8,5.1-2,7.2-3.6c4.6,6.1,13,7.8,20.3,6.7c4.7-0.7,8.9-3.4,12.8-6c2.1-1.4,4.2-2.8,6.5-4.1c0,0,0.1,0,0.1-0.1&#10;&#9;&#9;c0.7-0.1,1.4-0.3,2-0.5c10.6,11.3,25.6,15.2,40.9,13.2c8-1,15.6-3.8,22.5-7.9c8.3-5,15.1-12.3,22-19c7.5-7.2,15.7-13,25.5-16.8&#10;&#9;&#9;c9.3-3.7,19.2-5.4,29.1-6.2c18.9-1.6,40.6-1.1,57.7,8.2c2.8,1.5,5.4,3.4,7.8,5.5C1068.4,873.3,1071.9,870.9,1070.2,868.4z&#10;&#9;&#9; M1051.8,853.7c-20.3-11.9-45-14.5-68.2-10.7c7-2.3,13.9-4.6,20.5-5.9C1022.4,833.7,1039,841.5,1051.8,853.7z M959.4,849.4&#10;&#9;&#9;c-4.5,1.7-9,3.6-13.4,5.7c-7.5,3.6-15.1,7-20.7,13.5c-0.1,0.1-0.2,0.2-0.3,0.3c0,0,0.1-0.1,0.1-0.1c4.5-6.5,5.8-15.1,3.9-22.7&#10;&#9;&#9;c-0.4-1.7,0-2.5,0.8-2.9c0.1,0.1,0.2,0.2,0.4,0.3C939.4,849.9,949.3,850.9,959.4,849.4z M923.1,871.6c-1.6,2.1-3.1,4.2-5,6&#10;&#9;&#9;c-3.3,3.2-8.1,4.3-12.5,4.7c-6.6,0.5-14.6-0.8-18.9-6.1C898.2,883.8,913.8,882,923.1,871.6z M566.8,845.6&#10;&#9;&#9;c5.3-5.4,11.7-9.9,18.9-12.5c8.6-3.2,17.2-2,26.1-0.7c7.5,1.1,15.1,1.8,22.2-1.3c4.7-2,8.8-5.3,10.9-9.9c2.4,2.6,5.2,4.9,8.2,7&#10;&#9;&#9;c4.1,2.8,8.4,4.7,12.9,6c-1.5,0.1-3.1,0.7-4.6,2c-5.2,4.3-1.2,12.2,5.3,10.5c1.7-0.5,1.4-3.3-0.4-3.1c-2.9,0.2-4-2.8-1.5-4.3&#10;&#9;&#9;c1.9-1.2,4-0.4,5.6,0.9c2.4,1.9,8.5,11.1,2.7,11.6c-4.1,0.3-8.7-1.7-12.4-3.2c-4.3-1.7-8.4-3.7-12.7-5.4c-15.7-6.4-33.6-6.2-49.3,0&#10;&#9;&#9;c-15.3,6.1-26,18.7-38.9,28.3c-10.9,8.2-23.9,12.2-36.9,10.7c4.4-0.4,8.8-1.3,12.8-3.1C550.3,872.4,556.1,856.5,566.8,845.6z&#10;&#9;&#9; M675.9,840.3c-1.5-2.1-3.5-4-5.7-5.1c1.8,0.3,3.7,0.5,5.5,0.6C675.7,837.3,675.7,838.8,675.9,840.3z M672.7,870.4&#10;&#9;&#9;c-8.6-6.2-16.4-12.2-27-14.3c-9.9-2-20.2-0.5-29.8,2.2c-20.4,5.7-37.7,18.9-57.8,25.5c-8.5,2.8-17.3,3.8-26,3.1&#10;&#9;&#9;c10.6-0.5,21-4.4,30.3-11.1c7.5-5.4,14.1-11.8,21.3-17.5c8-6.3,16.8-10.9,26.7-13.1c10-2.3,20.6-1.7,30.5,1.1&#10;&#9;&#9;c9.8,2.9,18.6,8.8,28.8,10.6c3.2,0.5,6.5-0.1,8.9-2.3c0.4-0.4,0.8-0.9,1-1.3c4.6,9.5,12.8,17.4,22.2,22.1c5.4,2.7,11.7,5,18.1,6.1&#10;&#9;&#9;C703.7,885.9,686.1,880,672.7,870.4z M822,895.9c2.1-2.2,3.6-4.9,4.5-7.9c2.2-7.5-2.1-14.4-9.3-16.5c-6.6-1.9-15,1-17.1,8&#10;&#9;&#9;c-1,3.1-0.8,6,0.6,9c1.3,2.6,7.2,3.9,9.8,3.4c2.6-0.6,5.4-2.4,6.1-5.2c1-3.6-0.3-5-3.6-6.1c-1.9-0.6-2.7,2.4-0.8,3&#10;&#9;&#9;c0.5,0.2,0.9,0.3,1.4,0.5c0.8,3.6-3.7,4.4-6.5,3.6c-3.2-0.9-3.8-3.1-3.1-6.1c1.4-5.6,8.3-6.5,12.9-5.2c6,1.8,6.2,8.7,3.8,13.4&#10;&#9;&#9;c-2.2,4.2-6.7,6.8-11.1,8.1c-10.5,3.1-21.8-3.2-30.6-8.2c-5-2.8-8.8-6.6-12.2-11.3c-3.1-4.3-7.1-9-7.3-14.5c6.3,5.9,16.8,7,25,8&#10;&#9;&#9;c10,1.2,20.3,0.3,29.4-4.1c13.9-6.6,25.7-27.4,12.6-40.4c-5.6-5.6-16.4-5.2-23.5-3.5c-7.1,1.7-12.8,8-11.2,15.6&#10;&#9;&#9;c1.6,7.9,8.3,13.4,16.2,13.8c3.6,0.2,7.2-1.5,9.4-4.3c1.8-2.3,3.2-6.6,1.4-9.3c-0.4-0.7-0.8-1.1-1.3-1.7c-1-1.1-3,0.1-2.5,1.5&#10;&#9;&#9;c1,3,0.4,5.8-1.9,8c-2.7,2.7-7.3,1.7-10.3,0.3c-5.7-2.7-9.3-10.6-4.9-15.9c3.8-4.6,11.3-4.6,16.6-4.2c8.1,0.5,12.8,5.7,13,13.8&#10;&#9;&#9;c0.3,13.5-12.7,22.8-24.6,25.6c-13.9,3.2-29.9,0.2-42.4-6.1c3.7-9.3,3.3-19.8-4.1-27.3c-8.7-8.7-30.1-9.4-36.2,2.6&#10;&#9;&#9;c-5,9.8,1,27.3,13.4,27.8c7.2,0.3,13.2-5,11.6-12.5c-1.3-6.1-10.9-8-13.5-2c-0.7,1.6,1.1,3.2,2.4,1.9c1.7-1.6,4.2-2,6-0.4&#10;&#9;&#9;c2.6,2.3,0.3,6.3-1.9,7.7c-3.9,2.4-8.5,0-11.2-2.9c-4.5-4.9-5.5-13.6-1.8-19.2c4.2-6.2,15.4-5,21.4-3.3&#10;&#9;&#9;c8.9,2.6,12.5,11.7,11.1,20.3c-1.5,9-7.8,17.2-15.9,21.3c-8,4-18.3,2.6-26.6,0.5c-18.5-4.7-33.8-18.7-36.1-38.3&#10;&#9;&#9;c-0.1-0.5-0.1-0.9-0.1-1.4c8.9-0.5,17.6-3.7,25-9.6c11.3-9,19.8-24.6,21.4-38.9c0.8-7.1-0.2-14.2-4.1-20.2&#10;&#9;&#9;c-4.9-7.4-13.7-11-21.7-14c-8.5-3.3-16.7-2.2-24.1,3.1c-6,4.3-10.8,10.7-13.5,17.5c-5.7,14.2-2.1,30.6,11.8,38.4&#10;&#9;&#9;c13.8,7.8,28.1-1.6,34.3-14.2c2.7-5.4,4.1-12.5-0.8-17.1c-4.3-4.1-11.7-3.3-17-2.3c-2.8,0.5-1.6,4.8,1.2,4.3&#10;&#9;&#9;c3.6-0.6,7.2-0.9,10.8,0.1c5.2,1.6,4,7.6,2.6,11.4c-3.1,8.4-10.5,15.7-19.8,16.1c-10,0.5-18-8-20.6-17c-2.6-9.3,1.1-19.1,6.5-26.6&#10;&#9;&#9;c2.7-3.8,6.4-6.9,10.4-9.1c5.9-3.3,12.2-2.2,18.2,0.1c8.7,3.4,17.5,7.7,20.7,17.2c4.8,14.5-4.5,32-13.8,42.7&#10;&#9;&#9;c-6.3,7.3-15,12.5-24.6,13.7c-10.2,1.3-20.6-2.3-28.8-8.2c-2.9-2.1-5.4-4.5-7.6-7.1c-0.2-0.4-0.4-0.7-0.8-1&#10;&#9;&#9;c-8.4-10.9-11-25.7-9.4-39.4c3.5-30.1,28.5-53.5,57.9-58.3c20.1-3.3,39.2,5.1,50,22.4c-11.9,12.9-15.7,32.7-10.1,49.3&#10;&#9;&#9;c5.3,15.5,18.7,25.3,34.6,25.3c-3.3,5.6-2.7,13.1,1.1,18.5c2.2,3.1,6.1,3.9,9.6,4.2c4.6,0.5,8.6,0.1,12-3.2&#10;&#9;&#9;c6-5.8,4.1-16.3-4.7-17.6c-3.3-0.5-6.4,0.9-8.4,3.5c-2,2.6,0.2,5.6,2.9,5.9c0.9,0.1,1.7-1.2,1.1-2c-1.8-2.4,2.7-3.1,4.1-2.9&#10;&#9;&#9;c2.7,0.4,4.3,3.3,3.9,5.8c-0.8,5.9-6.5,6.4-11.2,6c-9.7-0.7-9.6-11.3-6.8-18.5c0,0,0.1,0,0.1,0c9.3-0.9,18-4.9,25.6-10.1&#10;&#9;&#9;c8.2-5.7,14.3-13.2,21.2-20.3c1-1-0.5-2.4-1.5-1.5c-7.6,7.3-16.2,14.3-25.2,19.8c-8.8,5.4-19.5,8.5-29.9,6.8&#10;&#9;&#9;c-20.7-3.3-28.8-26.3-25.1-44.7c3.5-17.9,20.1-35.9,39.8-31.9c8.3,1.7,15.7,7.6,18.3,15.7c3.1,9.8-1.2,22.1-7.6,29.7&#10;&#9;&#9;c-5.6,6.6-14.2,9.1-22.1,5.1c-7.7-3.9-10.5-12.3-7.9-20.2c2.8-8.4,12.8-14,21-9.7c4.2,2.2,5.9,7.7,3.8,11.9&#10;&#9;&#9;c-1.9,3.7-6.5,5.9-9.8,8.2c-1.4,1-0.6,3.5,1.2,2.9c7.2-2.2,14.2-7.5,14.2-15.7c-0.1-8.9-8.9-14.1-16.9-13.8&#10;&#9;&#9;c-16.5,0.6-25.4,22.1-15.5,34.6c4.8,6.1,12.8,9.8,20.6,8.7c8.4-1.2,14.7-7,19-14c4.3-7.1,6.6-15.8,5.8-24.2&#10;&#9;&#9;c4.1-4.4,11-7.1,16.4-8.8c7.6-2.5,15.7-3.5,23.7-3c15.5,0.9,29.6,9.6,36.9,23.4c6.9,13,4,28.6-6.6,38.6c-5,4.8-11.8,7.4-18.7,7.2&#10;&#9;&#9;c-4.1-0.1-8.2-2-10.4-5.5c-2.1-3.4-2-8.4,2.2-9.8c1.7-0.6,1.3-2.8-0.4-3c-4-0.4-5.5,1.5-6.8,5.1c-1.2,3.5-0.1,7.6,1.7,10.6&#10;&#9;&#9;c4.4,7.1,14.3,7.7,21.5,6.1c0.5-0.1,0.9-0.2,1.4-0.3c-2.6,9.8,2.9,21.3,10.3,27.3c8.4,6.8,20,6.7,29.1,1.3&#10;&#9;&#9;c8.6-5.1,14.7-17.3,8.6-26.5c-5.2-7.9-27.5-7.2-26.7,4.8c0.1,1.9,2.7,2.3,3.3,0.4c1.7-5.4,7-5.9,11.9-5.9c6,0,9.5,3.3,9.5,9.2&#10;&#9;&#9;c0.1,8.1-7.2,14.3-14.3,16.6c-7.7,2.5-15.6,0.1-21.2-5.6c-6.2-6.3-7.1-14.6-6.8-23c0,0,0,0,0,0c12.2-5.3,20.1-18.8,20.4-31.9&#10;&#9;&#9;c16.3-6,35.4-11.6,49.2,2.6c5.7,5.9,8.7,14,10.9,21.7c2.5,9,3.2,19-2.1,27.2c-2,3.2-5.2,5.7-8.7,7c-2.9,1.1-6.1,0.7-8.7,2.3&#10;&#9;&#9;c-0.3,0-0.5-0.1-0.8-0.1c-3-6-4.6-13.3-1-19.4c1.8-3.1,5.4-3.9,8.5-2.3c1.5,0.8,2.3,2.2,2,3.9c-0.4,2.3-3,2.9-4.6,4&#10;&#9;&#9;c-0.5,0.3-0.5,0.9,0,1.3c4.1,3,8.3-2.9,8.2-6.6c-0.1-4.8-5.3-7.3-9.4-7.4c-5.5-0.1-9,5.3-10.3,10c-1.7,6.4,0.3,13.8,3.7,19.3&#10;&#9;&#9;c0.3,0.5,0.7,0.8,1.2,0.9c-0.2,1.6,0.2,3.4,0.6,5.1c0.9,3.8,0.5,7.9-0.6,11.6c-4.7,16.5-25.5,21.6-37.9,10.3&#10;&#9;&#9;c-0.5-0.4-1.1-0.7-1.7-0.7c-1.2-0.9-2.4-1.9-3.3-3.1c-2.5-3.5-0.7-7.9,1.9-10.7c2.7-2.8,7.2-4.4,11-4.5c2.7-0.1,4.1,2.6,5.1,4.6&#10;&#9;&#9;c1.8,3.5-2.9,2-4.3,1.4c-2.2-1-4.2,1.4-2.6,3.3c3.7,4.3,13.6,3.1,12.2-4c-0.6-3.1-2.5-6.5-5.1-8.4c-3.3-2.3-6.8-1.9-10.5-0.9&#10;&#9;&#9;c-7.1,1.9-12.6,7-13.5,14.4c-0.6,4.7,2.1,8.3,5.7,10.9c-5.7,7-12.1,14.1-20.8,17.2c-0.1,0-0.2,0.1-0.3,0.1&#10;&#9;&#9;c-0.5,0.1-1.1,0.3-1.6,0.5c-8.3,2.1-18-0.7-21-9.5c-3.6-10.5,4.4-20.5,11.5-27.1c2-1.9,4.3-4.1,7.3-4.4c3.1-0.4,5.6,2.6,6.4,5.3&#10;&#9;&#9;c1.5,5.2-6,7.6-9.6,5.5c-2.2-1.2-4,2-2,3.4c4.4,3,10.2,1.7,13.7-2.1c3.8-4.2,2.3-10.9-2-14.2c-6.1-4.6-12-1-16.9,3.4&#10;&#9;&#9;c-5.5,5-10.3,10.9-12.7,18.1c-2,6.3-1.3,14.1,2.8,19.4c3.4,4.3,8.2,6.5,13.4,7.3c-1.9,1.3-3.8,2.6-5.4,3.5&#10;&#9;&#9;C836.8,902.8,828.1,901.4,822,895.9z M961.2,862.9c-17.4,9.1-27.8,27.3-45.7,35.6c-15,6.9-33.5,6.4-47.6-2.4&#10;&#9;&#9;c-1.3-0.8-2.5-1.7-3.6-2.7c7.5-3.3,13.8-9.6,19.1-16c5.9,11.4,23.8,11.7,34,6.6c7.1-3.6,10.5-11.8,16.6-16.7&#10;&#9;&#9;c7.1-5.8,15.8-9.9,24.2-13.3c16.8-6.7,34.9-10,52.9-8.6c12.8,1,25,4.7,36.1,10.7c-9.6-2.7-19.8-3.6-29.7-3.9&#10;&#9;&#9;C998.3,851.6,978.4,853.9,961.2,862.9z" style="fill: currentColor; opacity: 1;" transform="matrix(1, 0, 0, 1, 0, 0)"/></svg>